#!OML:ASF Y:\EmotionMaleHayes\Project 1\Capture day 1\Session 1\Male1.ASF
:FULLY-SPECIFIED
:DEGREES
740
root 47.264 17.0748 0.104873 647.431 91.0866 654.59
lowerback 6.58353 2.34435 -1.10017
upperback 2.82403 3.1225 0.27592
thorax -0.850222 1.58041 0.673392
lowerneck -22.2431 0.304703 2.20448
upperneck 21.2726 -0.257378 0.0656186
head 10.5016 0.112552 -0.372999
rclavicle 3.61726e-014 -1.78906e-015
rhumerus -6.61526 7.67678 -77.2767
rradius 46.9257
rwrist -5.35382
rhand -13.7617 -31.9001
rfingers 7.12502
rthumb 12.3589 -61.5148
lclavicle 3.61726e-014 -1.78906e-015
lhumerus -43.7043 7.01328 80.3925
lradius 16.2132
lwrist -31.7876
lhand -2.15217 -24.1556
lfingers 7.12502
lthumb 23.5274 4.42553
rfemur 12.1804 0.110812 17.6305
rtibia 7.69265
rfoot -13.5169 -1.32639
rtoes 13.8929
lfemur 5.03322 -0.133951 -14.451
ltibia 15.056
lfoot -13.2962 9.89371
ltoes -4.36946
741
root 47.3111 17.0924 0.0863755 670.973 91.2662 677.938
lowerback 6.2667 2.1499 -0.993428
upperback 2.82693 2.87193 0.248999
thorax -0.660081 1.45461 0.618031
lowerneck -22.5284 0.124653 1.95462
upperneck 21.5676 -0.496171 0.319853
head 10.661 0.0197277 -0.277344
rclavicle 4.08378e-014 6.95746e-016
rhumerus -7.26225 7.79222 -77.6225
rradius 47.3604
rwrist -5.65822
rhand -13.9484 -32.0588
rfingers 7.12502
rthumb 12.1789 -61.6843
lclavicle 4.08378e-014 6.95746e-016
lhumerus -42.8081 6.85991 80.576
lradius 16.0213
lwrist -32.5964
lhand -2.71106 -24.4929
lfingers 7.12502
lthumb 22.9912 4.15592
rfemur 12.4463 -0.0532191 17.696
rtibia 7.26083
rfoot -13.5711 -1.56579
rtoes 14.4715
lfemur 5.14664 -0.25586 -14.34
ltibia 14.5711
lfoot -13.085 9.58063
ltoes -4.8564
742
root 47.3392 17.1055 0.0765177 652.809 91.3599 659.439
lowerback 6.04335 2.22703 -1.50972
upperback 2.71283 2.94259 0.147438
thorax -0.67473 1.48539 0.80356
lowerneck -22.3702 0.130964 1.74763
upperneck 21.3851 -0.508302 0.693498
head 10.567 0.0419399 -0.110462
rclavicle -3.48805e-015 -4.07509e-015
rhumerus -8.07475 7.74029 -78.0912
rradius 47.8114
rwrist -5.81257
rhand -14.1699 -31.9383
rfingers 7.12502
rthumb 11.9653 -61.5764
lclavicle -3.48805e-015 -4.07509e-015
lhumerus -42.0192 6.63198 80.8261
lradius 16.0369
lwrist -33.0044
lhand -2.85481 -24.6294
lfingers 7.12502
lthumb 22.8533 4.03652
rfemur 12.1838 0.48364 17.3962
rtibia 7.16518
rfoot -13.5392 -1.70809
rtoes 14.8415
lfemur 5.173 -0.0105914 -14.6201
ltibia 14.1389
lfoot -13.1086 9.61952
ltoes -4.52746
743
root 47.3946 17.1153 0.0438175 645.838 91.5797 652.418
lowerback 5.75879 2.23034 -1.62207
upperback 2.73684 2.94464 -0.0158315
thorax -0.489079 1.48496 0.711637
lowerneck -22.2953 0.144958 1.73746
upperneck 21.3758 -0.472305 0.653847
head 10.5498 0.0523781 -0.117485
rclavicle -2.76497e-014 -1.49089e-015
rhumerus -8.94849 7.67476 -78.5242
rradius 48.313
rwrist -6.11
rhand -14.1479 -32.0609
rfingers 7.12502
rthumb 11.9865 -61.6976
lclavicle -2.76497e-014 -1.49089e-015
lhumerus -41.2636 6.27294 81.1202
lradius 16.2302
lwrist -33.2265
lhand -2.67604 -24.5965
lfingers 7.12502
lthumb 23.0248 4.04817
rfemur 12.4762 -0.344236 16.5393
rtibia 6.95301
rfoot -13.3655 -0.633856
rtoes 14.648
lfemur 5.8559 0.176 -15.1601
ltibia 13.262
lfoot -12.9021 9.51438
ltoes -5.6716
744
root 47.4227 17.1368 0.0403409 653.481 91.7375 659.885
lowerback 5.75701 2.1462 -1.89911
upperback 2.61661 2.81372 -0.0487406
thorax -0.619681 1.41799 0.837809
lowerneck -22.222 0.17038 1.64368
upperneck 21.3464 -0.44699 0.829078
head 10.5266 0.0782839 -0.0351621
rclavicle -1.35445e-014 1.36664e-015
rhumerus -9.91342 7.64679 -78.9584
rradius 48.7964
rwrist -6.26011
rhand -13.9931 -32.5711
rfingers 7.12502
rthumb 12.1358 -62.1991
lclavicle -1.35445e-014 1.36664e-015
lhumerus -40.5095 5.18489 81.8283
lradius 16.514
lwrist -32.6612
lhand -2.49743 -24.3127
lfingers 7.12502
lthumb 23.1962 4.31044
rfemur 12.4869 0.381054 16.7838
rtibia 6.77287
rfoot -13.6863 -1.62301
rtoes 14.4721
lfemur 5.98364 0.0161511 -15.1106
ltibia 12.6615
lfoot -12.5448 9.43896
ltoes -6.70783
